<!-- Generated by IcoMoon.io -->
<svg version="1.1" xmlns="http://www.w3.org/2000/svg" width="28" height="28" viewBox="0 0 32 32">
<title>account</title>
<path d="M26.667 16v-6.667h2.667v8h-2.667zM26.667 22.667h2.667v-2.667h-2.667zM13.333 17.333c3.56 0 10.667 1.787 10.667 5.333v4h-21.333v-4c0-3.547 7.107-5.333 10.667-5.333zM13.333 5.333c1.415 0 2.771 0.562 3.771 1.562s1.562 2.357 1.562 3.771-0.562 2.771-1.562 3.771c-1 1-2.357 1.562-3.771 1.562s-2.771-0.562-3.771-1.562-1.562-2.357-1.562-3.771c0-1.414 0.562-2.771 1.562-3.771s2.357-1.562 3.771-1.562zM13.333 19.867c-3.96 0-8.133 1.947-8.133 2.8v1.467h16.267v-1.467c0-0.853-4.173-2.8-8.133-2.8zM13.333 7.867c-0.742 0-1.455 0.295-1.98 0.82s-0.82 1.237-0.82 1.98c0 0.743 0.295 1.455 0.82 1.98s1.237 0.82 1.98 0.82c0.743 0 1.455-0.295 1.98-0.82s0.82-1.237 0.82-1.98-0.295-1.455-0.82-1.98c-0.525-0.525-1.237-0.82-1.98-0.82z"></path>
</svg>
