<!-- Generated by IcoMoon.io -->
<svg version="1.1" xmlns="http://www.w3.org/2000/svg" width="28" height="28" viewBox="0 0 32 32">
<title>shopping-cart</title>
<path d="M28.841 21.934h-18.609l0.934-1.903 15.525-0.028c0.525 0 0.975-0.375 1.069-0.894l2.15-12.034c0.056-0.316-0.028-0.641-0.234-0.888-0.102-0.122-0.229-0.219-0.373-0.287s-0.3-0.103-0.459-0.104l-19.75-0.066-0.169-0.794c-0.106-0.506-0.563-0.875-1.081-0.875h-4.828c-0.293 0-0.573 0.116-0.78 0.323s-0.323 0.487-0.323 0.78c0 0.293 0.116 0.573 0.323 0.78s0.487 0.323 0.78 0.323h3.934l0.737 3.506 1.816 8.791-2.338 3.816c-0.121 0.164-0.194 0.358-0.211 0.562s0.024 0.407 0.117 0.588c0.188 0.372 0.566 0.606 0.984 0.606h1.963c-0.418 0.556-0.644 1.233-0.644 1.928 0 1.769 1.438 3.206 3.206 3.206s3.206-1.438 3.206-3.206c0-0.697-0.231-1.375-0.644-1.928h5.034c-0.418 0.556-0.644 1.233-0.644 1.928 0 1.769 1.438 3.206 3.206 3.206s3.206-1.438 3.206-3.206c0-0.697-0.231-1.375-0.644-1.928h3.541c0.606 0 1.103-0.494 1.103-1.103-0.002-0.292-0.119-0.572-0.326-0.778s-0.488-0.322-0.78-0.322zM9.553 7.906l17.994 0.059-1.762 9.869-14.134 0.025-2.097-9.953zM12.581 27.053c-0.544 0-0.988-0.444-0.988-0.988s0.444-0.987 0.988-0.987c0.544 0 0.987 0.444 0.987 0.987 0 0.262-0.104 0.513-0.289 0.698s-0.436 0.289-0.698 0.289zM22.741 27.053c-0.544 0-0.987-0.444-0.987-0.988s0.444-0.987 0.987-0.987c0.544 0 0.988 0.444 0.988 0.987 0 0.262-0.104 0.513-0.289 0.698s-0.436 0.289-0.698 0.289z"></path>
</svg>
